HIERARCHY
ROOT root
{
	OFFSET	0	13.1	24.9
	CHANNELS 6  Xposition Yposition Zposition Xrotation Yrotation Zrotation
	JOINT spine_1
	{
		OFFSET	0	9.99999	0
		CHANNELS 3  Xrotation Yrotation Zrotation
		JOINT spine_2
		{
			OFFSET	0	112	-10
			CHANNELS 3  Xrotation Yrotation Zrotation
			JOINT spine_3
			{
				OFFSET	0	206.5	19.3
				CHANNELS 3  Xrotation Yrotation Zrotation
				JOINT spine_4
				{
					OFFSET	0	110.4	14.6
					CHANNELS 3  Xrotation Yrotation Zrotation
					JOINT neck_1
					{
						OFFSET	0	71.8	-50.3
						CHANNELS 3  Xrotation Yrotation Zrotation
						JOINT neck_2
						{
							OFFSET	0	86.2	-25.8
							CHANNELS 3  Xrotation Yrotation Zrotation
							JOINT head_ee
							{
								OFFSET	0	179.8	-8.7
								CHANNELS 3  Xrotation Yrotation Zrotation
								End Site
								{
									OFFSET	1	0	0
								}
							}
						}
					}
					JOINT left_clavicle
					{
						OFFSET	-43.2	22.4	-70.8
						CHANNELS 3  Xrotation Yrotation Zrotation
						JOINT left_shoulder
						{
							OFFSET	-93.9	-5.79999	48.7
							CHANNELS 3  Xrotation Yrotation Zrotation
							JOINT left_elbow
							{
								OFFSET	-291.4	-30.8	15.2
								CHANNELS 3  Xrotation Yrotation Zrotation
								JOINT left_lowarm_twist
								{
									OFFSET	-110.7	-3.89999	13.6
									CHANNELS 3  Xrotation Yrotation Zrotation
									JOINT left_hand
									{
										OFFSET	-110.7	-3.89999	13.6
										CHANNELS 3  Xrotation Yrotation Zrotation
										JOINT left_ee
										{
											OFFSET	-80.8	-5.10001	12.1
											CHANNELS 3  Xrotation Yrotation Zrotation
											End Site
											{
												OFFSET	1	0	0
											}
										}
									}
								}
							}
						}
					}
					JOINT right_clavicle
					{
						OFFSET	43.2	22.4	-70.8
						CHANNELS 3  Xrotation Yrotation Zrotation
						JOINT right_shoulder
						{
							OFFSET	93.9	-5.79999	48.7
							CHANNELS 3  Xrotation Yrotation Zrotation
							JOINT right_elbow
							{
								OFFSET	291.4	-30.8	15.2
								CHANNELS 3  Xrotation Yrotation Zrotation
								JOINT right_lowarm_twist
								{
									OFFSET	110.7	-3.89999	13.6
									CHANNELS 3  Xrotation Yrotation Zrotation
									JOINT right_hand
									{
										OFFSET	110.7	-3.89999	13.6
										CHANNELS 3  Xrotation Yrotation Zrotation
										JOINT right_ee
										{
											OFFSET	80.8	-5.10001	12.1
											CHANNELS 3  Xrotation Yrotation Zrotation
											End Site
											{
												OFFSET	1	0	0
											}
										}
									}
								}
							}
						}
					}
				}
			}
		}
	}
	JOINT left_hip
	{
		OFFSET	-82.8	-127.5	0.300001
		CHANNELS 3  Xrotation Yrotation Zrotation
		JOINT left_knee
		{
			OFFSET	-28.2	-396.7	2.2
			CHANNELS 3  Xrotation Yrotation Zrotation
			JOINT left_ankle
			{
				OFFSET	-11.7	-411.3	35.4
				CHANNELS 3  Xrotation Yrotation Zrotation
				JOINT left_toes
				{
					OFFSET	0	-60	-88.6
					CHANNELS 3  Xrotation Yrotation Zrotation
					JOINT left_foot_ee
					{
						OFFSET	-22.5	-16.5	-42.2
						CHANNELS 3  Xrotation Yrotation Zrotation
						End Site
						{
							OFFSET	1	0	0
						}
					}
				}
			}
		}
	}
	JOINT right_hip
	{
		OFFSET	82.8	-127.5	0.300001
		CHANNELS 3  Xrotation Yrotation Zrotation
		JOINT right_knee
		{
			OFFSET	28.2	-396.7	2.2
			CHANNELS 3  Xrotation Yrotation Zrotation
			JOINT right_ankle
			{
				OFFSET	11.7	-411.3	35.4
				CHANNELS 3  Xrotation Yrotation Zrotation
				JOINT right_toes
				{
					OFFSET	0	-60	-88.6
					CHANNELS 3  Xrotation Yrotation Zrotation
					JOINT right_foot_ee
					{
						OFFSET	22.5	-16.5	-42.2
						CHANNELS 3  Xrotation Yrotation Zrotation
						End Site
						{
							OFFSET	1	0	0
						}
					}
				}
			}
		}
	}
}
MOTION
Frames: 11
Frame Time: 0.02
2010.39 687.886 -625.338 -162.25 -79.6892 -158.958 0.54093 -0.531009 -2.81019 0.545255 -0.351187 -2.83825 0.564429 0.225154 -2.85101 0.553159 -0.227747 -2.8508 -5.53446 11.6692 10.36 -5.24374 13.8117 12.5443 -0.0 0.0 -0.0 9.48035 3.42689 18.4134 2.17789 -25.1472 52.4724 4.55711 -66.086 2.96519 5.54714 0.162153 -0.689734 -0.824984 -3.35922 -6.98627 -0.0 0.0 -0.0 4.00986 6.27859 -7.37809 -25.6429 3.83983 -67.8415 0.329474 9.26981 -0.026711 34.4565 0.0927489 4.33499 -1.77423 -9.63945 7.41252 0.0 0.0 0.0 -15.9793 27.1056 1.99893 1.23817 -0.052963 -0.182615 40.3573 -2.24255 -4.9267 -21.6366 0.0 0.0 -0.0 0.0 -0.0 35.3258 13.1451 -9.49986 0.285376 0.0118563 0.0421882 -10.448 21.2188 -1.79829 -31.8845 0.0 0.0 0.0 0.0 0.0 
2042.73 682.907 -623.808 -165.697 -81.3544 -162.312 0.369658 -0.612612 -2.97355 0.374478 -0.422243 -3.00647 0.398922 0.197972 -3.02949 0.386226 -0.28274 -3.02276 -6.42468 11.4774 10.561 -6.13316 13.5432 12.7719 -0.0 0.0 -0.0 8.66563 2.58122 16.8397 1.80609 -25.2533 56.4052 4.53718 -65.993 2.94697 3.88394 0.120561 -0.481353 -0.755724 -4.18601 -6.87689 -0.0 0.0 -0.0 3.65878 4.46224 -6.78597 -24.8265 4.44435 -67.4452 0.342245 9.62253 -0.028807 35.0107 0.1155 4.40209 -1.93834 -14.0567 6.34168 0.0 0.0 0.0 -18.2432 26.721 1.62988 -0.629768 0.0254189 0.093302 39.865 -2.40858 -4.88635 -20.2809 0.0 0.0 -0.0 0.0 -0.0 33.3174 13.2169 -9.36264 -3.91148 -0.141169 -0.583576 -6.27982 16.1792 -1.0255 -30.0597 0.0 0.0 0.0 0.0 0.0 
2067.21 679.657 -615.112 -167.198 -80.8375 -163.74 0.347123 -0.563882 -3.06622 0.352278 -0.367723 -3.09585 0.374523 0.270951 -3.10581 0.361133 -0.22271 -3.10964 -6.48246 11.4011 11.6341 -6.12804 12.6198 13.8292 -0.0 0.0 -0.0 7.71187 4.17286 14.9197 0.298553 -24.6499 58.0255 4.57745 -66.1802 2.98379 2.44941 0.079839 -0.302639 -0.708329 -3.91621 -6.43846 -0.0 0.0 -0.0 3.71846 3.85812 -6.94404 -24.1451 4.80122 -67.9677 0.375615 10.5406 -0.0346486 35.1587 0.121685 4.41997 -2.31179 -18.5129 6.43796 0.0 0.0 0.0 -18.2484 25.2981 0.425731 -4.28599 0.152587 0.639919 40.1909 -1.62316 -4.90617 -18.4758 0.0 0.0 -0.0 0.0 -0.0 32.915 13.4629 -10.3392 -6.21836 -0.205627 -0.931717 -0.399698 16.508 -0.0645684 -31.3218 0.0 0.0 0.0 0.0 0.0 
2097.9 683.839 -611.314 -173.683 -81.2583 -170.309 0.246632 -0.484358 -3.15485 0.252125 -0.282729 -3.17924 0.270348 0.377074 -3.16945 0.256355 -0.12795 -3.18921 -9.00256 10.5062 12.2042 -8.6266 11.2392 14.3614 -0.0 0.0 -0.0 6.60922 4.99607 12.8003 -0.13236 -24.1397 61.817 4.00764 -63.247 2.46841 1.45977 0.0491415 -0.179961 -0.784609 -4.14321 -7.05419 -0.0 0.0 -0.0 3.50214 3.19607 -6.55539 -22.4561 4.34553 -67.0255 0.437677 12.2333 -0.0469032 36.286 0.170311 4.55563 -3.17576 -25.4884 7.76201 0.0 0.0 0.0 -19.294 24.703 0.0193563 -7.73547 0.240351 1.16193 38.2236 1.66847 -4.70947 -16.9587 0.0 0.0 -0.0 0.0 -0.0 30.8055 14.0942 -10.192 -10.8996 -0.293092 -1.64453 7.57668 15.7027 1.18591 -32.2838 0.0 0.0 0.0 0.0 0.0 
2129.93 686.759 -608.891 178.751 -80.3085 -178.236 0.122982 -0.426379 -3.11118 0.128337 -0.227642 -3.13198 0.143354 0.428235 -3.11093 0.129857 -0.068201 -3.13949 -10.6123 9.21217 13.0805 -10.1674 8.63871 14.9987 -0.0 0.0 -0.0 5.82558 6.29914 11.3278 -0.690604 -22.6544 64.7666 3.6879 -61.2885 2.18536 0.0406667 0.00143121 -0.00499643 -0.677185 -3.05877 -5.85552 -0.0 0.0 -0.0 3.38833 1.99345 -6.40792 -20.7387 4.73382 -66.541 0.425142 11.8931 -0.0442834 36.0683 0.160712 4.5295 -3.80382 -28.7335 9.32895 0.0 0.0 0.0 -20.0158 23.9567 0.420361 -11.6763 0.301958 1.76337 35.9033 4.2311 -4.48634 -15.7418 0.0 0.0 -0.0 0.0 -0.0 27.7181 14.5016 -10.3961 -13.6605 -0.317286 -2.06743 16.7346 14.8357 2.50359 -32.7711 0.0 0.0 0.0 0.0 0.0 
2165.11 686.071 -605.54 173.621 -78.2989 176.64 0.195812 -0.404338 -3.15431 0.201325 -0.202906 -3.17362 0.215059 0.457192 -3.14709 0.201242 -0.0453087 -3.17977 -12.5586 8.68686 13.5995 -12.0757 7.84453 15.4636 -0.0 0.0 -0.0 4.6377 8.09309 9.18109 -1.53805 -22.208 68.3434 3.06267 -56.5982 1.6493 -1.16052 -0.0423332 0.142154 -0.975264 -1.56346 -7.21601 -0.0 0.0 -0.0 3.72601 1.23749 -7.11627 -19.6923 5.83649 -65.3298 0.482493 13.4424 -0.0568613 35.7601 0.147295 4.49246 -4.28878 -28.8894 11.8934 0.0 0.0 0.0 -18.4599 23.7552 -0.26601 -20.0854 0.294615 3.05242 36.118 6.97215 -4.5073 -14.0836 0.0 0.0 -0.0 0.0 -0.0 24.5594 14.453 -11.1645 -15.1254 -0.321842 -2.29213 22.3147 14.133 3.2279 -33.2656 0.0 0.0 0.0 0.0 0.0 
2190.83 689.65 -602.239 170.021 -76.0941 172.941 0.226539 -0.325896 -3.19846 0.232222 -0.121816 -3.2127 0.241445 0.543279 -3.16882 0.227436 0.036275 -3.2148 -14.1616 8.16672 14.4865 -13.6039 6.74979 16.2459 -0.0 0.0 -0.0 3.74217 9.5357 7.63216 -3.00154 -21.2853 70.4106 2.63654 -52.5511 1.30183 -2.08696 -0.0781918 0.255011 -1.00976 0.386217 -6.58783 -0.0 0.0 -0.0 4.06911 0.782498 -7.8115 -17.3023 6.45263 -64.1852 0.461915 12.8887 -0.0521743 35.7743 0.147906 4.49416 -4.68056 -28.8426 14.1018 0.0 0.0 0.0 -18.3563 21.7674 -0.148579 -26.9202 0.149655 4.09063 36.6507 7.8209 -4.56003 -12.9471 0.0 0.0 -0.0 0.0 -0.0 21.9139 14.6389 -11.6588 -16.1789 -0.321566 -2.45376 26.3432 12.9897 3.69595 -33.3889 0.0 0.0 0.0 0.0 0.0 
2214.48 696.968 -603.93 167.017 -75.865 169.616 0.150244 -0.352227 -2.9569 0.155093 -0.163443 -2.97331 0.165791 0.456942 -2.94255 0.153709 -0.0133003 -2.97776 -15.7909 6.71912 12.4244 -15.3825 5.64921 13.9528 -0.0 0.0 -0.0 4.233 11.9589 8.53668 -4.32131 -20.3078 70.8884 2.33969 -49.2051 1.07144 -3.84815 -0.151379 0.467916 -1.13594 3.91609 -5.85973 -0.0 0.0 -0.0 4.08425 0.822163 -7.83907 -14.3176 6.03184 -64.4941 0.391731 10.9821 -0.0376578 35.9249 0.154444 4.51228 -5.20007 -28.9143 16.9801 0.0 0.0 0.0 -14.7637 19.7734 -1.46093 -31.9588 -0.0359298 4.84137 32.048 11.4816 -4.12237 -13.454 0.0 0.0 -0.0 0.0 -0.0 18.6214 14.8289 -11.1724 -14.6755 -0.321054 -2.22311 26.1778 10.5216 3.62468 -34.3 0.0 0.0 0.0 0.0 0.0 
2239.27 702.994 -605.126 166.837 -74.7286 169.155 0.186545 -0.242474 -2.7796 0.19084 -0.0651793 -2.78939 0.195813 0.513537 -2.74252 0.185325 0.074138 -2.78916 -14.9939 6.40609 12.0861 -14.6022 5.05692 13.4896 -0.0 0.0 -0.0 4.40362 12.3686 8.831 -6.60941 -19.5793 71.1428 1.97997 -44.4403 0.808891 -4.96673 -0.201253 0.601948 -1.28927 6.64985 -5.63926 -0.0 0.0 -0.0 4.59635 2.32693 -8.77464 -10.2438 6.06615 -64.7877 0.254958 7.19845 -0.0160372 36.2811 0.170095 4.55505 -5.5194 -29.0164 18.7301 0.0 0.0 0.0 -11.7925 17.6031 -0.837487 -35.423 -0.201548 5.34699 33.3996 12.188 -4.26709 -13.3427 0.0 0.0 -0.0 0.0 -0.0 16.2418 15.3796 -10.8819 -13.7799 -0.317872 -2.08573 28.1083 7.56779 3.79307 -32.8468 0.0 0.0 0.0 0.0 0.0 
2253.58 712.113 -603.853 166.075 -74.0418 168.294 0.03487 -0.267814 -2.55766 0.0385032 -0.104575 -2.56951 0.0449169 0.436074 -2.53442 0.0359548 0.030475 -2.57146 -17.251 5.35316 12.3987 -16.8285 3.38529 13.5402 -0.0 0.0 -0.0 4.48981 14.8136 8.98872 -8.21894 -18.7847 70.9488 1.7995 -41.7105 0.685601 -5.98542 -0.248946 0.723155 -1.3517 10.0695 -4.48876 -0.0 0.0 -0.0 4.79998 3.73113 -9.11575 -4.1693 6.64681 -65.8824 0.199972 5.65741 -0.00988063 37.6905 0.234621 4.72329 -5.76613 -29.0012 20.1723 0.0 0.0 0.0 -10.6082 14.8296 -0.220342 -38.6754 -0.384657 5.81197 31.3883 12.9841 -4.06476 -13.9192 0.0 0.0 -0.0 0.0 -0.0 15.2472 15.5103 -10.7843 -15.0603 -0.321761 -2.28214 25.5488 4.66912 3.46045 -32.9513 0.0 0.0 0.0 0.0 0.0 
2264.89 714.444 -604.315 164.407 -72.5268 166.679 -0.146465 -0.245311 -2.36907 -0.143347 -0.094107 -2.37987 -0.137815 0.414035 -2.34549 -0.14549 0.0385223 -2.38142 -17.6298 5.533 11.5995 -17.2681 4.26272 12.8809 -0.0 0.0 -0.0 4.10477 15.7047 8.37049 -9.3442 -18.4238 71.307 1.6241 -38.8148 0.572205 -5.23657 -0.213676 0.634135 -1.29368 13.1047 -2.74006 -0.0 0.0 -0.0 5.07132 5.15868 -9.59651 0.0275906 6.91157 -66.3627 0.187547 5.30797 -0.00869355 38.4058 0.26895 4.80807 -6.00253 -29.2496 21.3508 0.0 0.0 0.0 -8.1155 13.5187 -1.29431 -41.7485 -0.58174 6.2413 30.4973 13.225 -3.97163 -15.0342 0.0 0.0 -0.0 0.0 -0.0 12.5829 15.8367 -10.2354 -13.475 -0.3163 -2.03898 24.6297 3.1861 3.33691 -32.7744 0.0 0.0 0.0 0.0 0.0 
